HIERARCHY
ROOT Hips
{
	OFFSET 0.000000 0.000000 0.000000 
	CHANNELS 6 Xposition Yposition Zposition Yrotation Zrotation Xrotation 
	JOINT Lumbar
	{
		OFFSET 0.000000 0.000000 0.000000 
		CHANNELS 3 Zrotation Xrotation Yrotation
		JOINT Neck
		{
			OFFSET 0.000000 0.445665 0.000000 
			CHANNELS 3 Zrotation Xrotation Yrotation
			End Site
			{
				OFFSET 0.000000 0.227535 0.000000 
			}
		}
		JOINT RightShoulder
		{
			OFFSET 0.019635 0.377685 0.194865 
			CHANNELS 3 Zrotation Xrotation Yrotation
			JOINT RightElbow
			{
				OFFSET 0.000000 -0.243375 0.000000 
				CHANNELS 2 Zrotation Yrotation
				JOINT RightWrist
				{
					OFFSET 0.000000 -0.264825 0.000000 
					CHANNELS 2 Zrotation Xrotation
					End Site
					{
						OFFSET 0.006600 -0.176220 0.000990 
					}
				}
			}
		}
		JOINT LeftShoulder
		{
			OFFSET 0.019635 0.377685 -0.194865 
			CHANNELS 3 Zrotation Xrotation Yrotation
			JOINT LeftElbow
			{
				OFFSET 0.000000 -0.243375 0.000000 
				CHANNELS 2 Zrotation Yrotation
				JOINT LeftWrist
				{
					OFFSET 0.000000 -0.264825 0.000000 
					CHANNELS 2 Zrotation Xrotation
					End Site
					{
						OFFSET 0.006600 -0.176220 -0.000990 
					}
				}
			}
		}
	}
	JOINT RightHip
	{
		OFFSET 0.052140 -0.069960 0.075570 
		CHANNELS 3 Zrotation Xrotation Yrotation
		JOINT RightKnee
		{
			OFFSET 0.000000 -0.402270 0.000000 
			CHANNELS 1 Zrotation
			JOINT RightAnkle
			{
				OFFSET 0.000000 -0.404085 0.000000 
				CHANNELS 3 Zrotation Xrotation Yrotation
				End Site
				{
					OFFSET 0.204105 -0.089430 0.008415 
				}
			}
		}
	}
	JOINT LeftHip
	{
		OFFSET 0.052140 -0.069960 -0.075570 
		CHANNELS 3 Zrotation Xrotation Yrotation
		JOINT LeftKnee
		{
			OFFSET 0.000000 -0.402270 0.000000 
			CHANNELS 1 Zrotation
			JOINT LeftAnkle
			{
				OFFSET 0.000000 -0.404085 0.000000 
				CHANNELS 3 Zrotation Xrotation Yrotation
				End Site
				{
					OFFSET 0.204105 -0.089430 -0.008415 
				}
			}
		}
	}
}
MOTION
Frames: 11
Frame Time: 0.02
-1.53732 -0.35682 1.01086 1449.72965 -17.84293 4.95281 45.877 2.03426 6.81518 -14.67762 -3.10203 -2.11994 -27.72416 -1.97357 -28.52972 50.689 67.95043 -17.6355 0.39795 6.39803 12.9654 57.30938 121.42024 -60.6906 -20.4791 -1.56094 31.45102 -1.41847 -11.36874 -53.23785 -8.13353 -2.95901 -3.75332 48.76883 -4.70283 38.844 -0.92711 -23.94387 -28.57518 -11.32433
-1.51298 -0.35254 1.00411 1449.86708 -17.48513 5.48814 45.96593 1.82946 6.71649 -14.891 -3.1305 -2.11994 -29.39588 -1.78768 -27.53905 50.60866 67.07732 -17.76704 0.58748 6.19954 12.3918 57.48115 121.42823 -60.91999 -20.4009 -1.53312 31.9516 -2.25919 -9.93384 -55.8256 -9.28142 -2.77495 -3.71676 48.47624 -4.81511 35.93157 -4.52033 -21.38461 -23.71824 -8.98398
-1.49012 -0.34857 0.99729 1449.82533 -16.9461 5.92866 45.77895 1.70438 6.59952 -15.08772 -3.09264 -2.11994 -31.18634 -1.69841 -26.35118 50.45752 66.12492 -17.87326 0.7973 6.1554 11.95921 57.51003 121.44351 -61.08701 -20.37965 -1.50788 32.78202 -3.09269 -8.40273 -58.7891 -10.64488 -2.52941 -3.65974 48.40136 -4.62386 32.06827 -9.12533 -18.12557 -17.0991 -5.81596
-1.46671 -0.3445 0.99063 1449.85072 -16.47414 6.38801 45.69038 1.55453 6.46659 -15.28908 -3.07547 -2.11994 -32.87705 -1.56492 -25.29422 50.3027 65.2425 -17.98986 0.98929 6.04597 11.48398 57.59707 121.44679 -61.28091 -20.32511 -1.4874 33.48431 -3.9059 -6.95746 -61.57016 -11.86545 -2.3274 -3.61777 48.17525 -4.55897 28.73467 -13.1924 -15.27074 -11.47537 -3.11717
-1.44271 -0.34024 0.98336 1449.9384 -16.06136 6.9545 45.71839 1.35335 6.43233 -15.50594 -3.09947 -2.11994 -34.78474 -1.44231 -24.02822 50.29618 64.23579 -18.10001 1.21351 5.91326 10.90937 57.71127 121.48424 -61.49423 -20.29809 -1.44131 34.09352 -4.82641 -5.32801 -64.422 -13.27956 -2.05971 -3.55185 48.15049 -4.5509 24.97245 -17.60004 -12.04787 -5.01369 -0.01581
-1.42031 -0.33645 0.97737 1449.85676 -15.48852 7.27126 45.44086 1.2779 6.18589 -15.68554 -3.02028 -2.11994 -36.25887 -1.31418 -23.1699 49.96793 63.45371 -18.22124 1.37903 5.8683 10.57917 57.73352 121.45375 -61.65646 -20.22519 -1.44669 34.97695 -5.51624 -4.06461 -67.19057 -14.34043 -1.91344 -3.53047 47.76999 -4.34821 21.87816 -21.53235 -9.42586 0.11977 2.4424
-1.40197 -0.33402 0.97478 1449.30491 -14.46655 6.94962 44.33928 1.54519 5.40587 -15.764 -2.68713 -2.11994 -36.51555 -1.17442 -23.41178 48.73335 63.41446 -18.38658 1.35197 6.00954 10.88305 57.56087 121.22723 -61.57459 -20.05734 -1.62783 36.51452 -5.60208 -3.80189 -69.83812 -14.37066 -2.12611 -3.64155 46.29841 -3.69612 20.92967 -23.9305 -8.64885 1.09178 2.89106
-1.38519 -0.33205 0.97351 1448.59644 -13.2996 6.37482 42.94761 1.93374 4.40609 -15.80554 -2.24976 -2.11994 -36.32721 -1.02045 -24.08646 47.1837 63.58545 -18.56382 1.26982 6.23768 11.43034 57.29625 120.93359 -61.45931 -19.8354 -1.85544 38.31841 -5.45017 -3.91826 -72.34644 -14.03787 -2.46136 -3.79726 44.47378 -2.85516 20.67751 -25.80935 -8.49885 0.67443 2.66777
-1.36769 -0.32978 0.97174 1447.98955 -12.23266 5.89675 41.71919 2.2579 3.47556 -15.86495 -1.85035 -2.11994 -36.33315 -0.85309 -24.61801 45.80172 63.58849 -18.73313 1.23032 6.43774 11.87157 57.05901 120.67533 -61.43708 -19.60755 -2.03904 40.0179 -5.38506 -3.8828 -74.79238 -13.87232 -2.73517 -3.92975 42.84905 -2.09068 20.06356 -27.90771 -8.05285 0.93153 2.77096
-1.35027 -0.32787 0.96956 1447.24901 -11.01466 5.49104 40.34886 2.62524 2.66979 -15.91902 -1.48799 -2.11994 -36.37594 -0.76977 -24.92455 44.31503 63.88603 -18.91393 1.11852 6.59353 12.29853 56.87926 120.39676 -61.09601 -19.50428 -2.31674 41.66826 -5.40672 -3.75498 -77.80107 -13.70473 -3.03188 -4.07432 41.06467 -1.35512 19.60368 -30.11106 -7.6285 1.0703 2.81489
-1.33303 -0.32534 0.96854 1446.7509 -10.08005 4.87786 39.20852 2.92883 1.55695 -15.9759 -1.02502 -2.11994 -36.23634 -0.51083 -25.79452 42.97113 63.63188 -19.07156 1.14221 6.86201 12.81096 56.55769 120.14437 -61.39722 -19.13548 -2.41267 43.4679 -5.19474 -3.91407 -79.57572 -13.45245 -3.30973 -4.20411 39.52675 -0.51852 19.00544 -31.9593 -7.3177 1.10065 2.81089
